<svg width="183" height="197" viewBox="0 0 183 197" xmlns="http://www.w3.org/2000/svg"><title>Slice 1</title><g fill="none" fill-rule="evenodd"><path fill="#F4A93F" d="M80.95 76l19.202 33.45-24.243-.872z"/><path fill="#F4A83E" d="M90.16 82.4l14.234 27.05-29.091-.872z"/><path fill="#E88634" d="M87.489 87.038L99.94 109.45l-24.334-.243z"/><path fill="#F8CA51" d="M100.546 84.758l3.848 24.692L75 109.153z"/><path fill="#F8CA51" d="M90.16 117l14.555-7.847L75 108.875z"/><path d="M1.008 98C1.643 118.712 41.69 135 91 135v-8.002C51.309 126.8 9.675 114.642 9.008 98h-8z" fill="#E88634"/><path d="M135.523 21.782C117.27 11.976 83.14 38.515 58.484 81.218l6.93 4.001c20.016-34.275 51.364-64.252 66.11-56.508l4-6.929z" fill="#F9CB52"/><path d="M1.008 98C1.643 77.288 41.69 61 91 61v8.002C51.309 69.2 9.675 81.358 9.008 98h-8z" fill="#E88634"/><path d="M46.043 20c-17.62 10.906-11.702 53.732 12.953 96.436l6.93-4.002C46.251 77.963 35.964 35.827 50.043 26.93l-4-6.929z" fill="#F4A73E"/><path d="M46.043 176.436C28.423 165.53 34.34 122.703 58.996 80l6.93 4.001c-19.675 34.472-29.962 76.608-15.883 85.506l-4 6.929z" fill="#F9CB52"/><path d="M45 20.5c18.255-9.806 52.384 16.732 77.04 59.436l-6.931 4C95.093 49.662 63.746 19.687 49 27.43L45 20.5z" fill="#F4A73E"/><path d="M181 98c-.635-20.712-40.683-37-89.992-37v8.002C130.698 69.2 172.333 81.358 173 98h8z" fill="#E88634"/><path d="M45.241 176.501c.107.065.214.129.322.191 18.143 10.475 52.623-16.146 77.476-59.192l-6.892-4.067c-20.175 34.58-51.9 64.808-66.502 56.378a10.11 10.11 0 0 1-.437-.267L45.24 176.5z" fill="#F9CB52"/><path d="M136.036 175.938C117.78 185.738 83.653 159.2 59 116.5l-.26-.45 6.836-4.16c19.984 34.503 51.585 64.863 66.431 57.134l4.029 6.914z" fill="#F4A73E"/><path d="M181 97c.005.166.008.333.008.5 0 20.95-40.295 37.5-90 37.5v-8.002c40.012-.198 82-12.554 82-29.403 0-.2-.006-.398-.018-.595H181z" fill="#E88634"/><path d="M135.005 176.43c17.609-10.915 11.688-53.734-12.962-96.43l-.44-.76-7.022 3.835.047.082c19.952 34.558 30.52 77.214 16.45 86.298l3.927 6.975z" fill="#F4A73E"/><path d="M135.48 21.282c17.62 10.906 11.702 53.733-12.953 96.436l-6.93-4.001c19.676-34.472 29.962-76.608 15.883-85.506l4-6.929z" fill="#F9CB52"/></g></svg>